<svg xmlns="http://www.w3.org/2000/svg" version="1.2" baseProfile="tiny-ps" width="1024" height="1024" viewBox="0 0 1024 1024">
  <title>SUPPRESSED</title>
  <desc>BIMI</desc>
  <rect x="0" y="0" width="1024" height="1024" fill="#fafafa"/>
  <path d="M 52.4116,440 0,584 H 971.5884 L 1024,440 Z m 52.7686,11.35205 c 8.848,0 16.0258,1.51213 21.5332,4.53613 5.5481,2.912 9.655,7.16758 12.3208,12.76758 l -20.3179,14.28028 c -1.6075,-3.58401 -4.0756,-6.49584 -7.4043,-8.73585 -3.3287,-2.24 -8.1289,-3.36035 -14.4009,-3.36035 -6.272,0 -11.4802,1.23229 -15.625,3.69629 -4.104,2.352 -6.9512,5.71208 -8.541,10.08008 -1.1006,3.024 -1.4377,5.4876 -1.0107,7.3916 0.427,1.904 1.6687,3.41613 3.7251,4.53613 2.0971,1.008 4.851,1.90399 8.2617,2.68799 l 10.1865,2.01612 c 7.4628,1.344 13.2399,3.47178 17.332,6.38379 4.0922,2.91199 6.5345,6.66435 7.3272,11.25635 0.8334,4.47999 0.068,9.96786 -2.2964,16.46386 -2.6905,7.392 -6.7906,13.88779 -12.3008,19.48779 -5.3982,5.6 -11.9723,9.96801 -19.7217,13.10401 -7.7494,3.136 -16.2718,4.7041 -25.5678,4.7041 -9.968,0 -17.8841,-1.79198 -23.7476,-5.37598 -5.7515,-3.584 -10.0311,-8.28781 -12.8394,-14.11181 l 20.2105,-14.44825 c 2.3199,4.70401 5.4957,8.28796 9.5269,10.75196 4.1431,2.464 9.2386,3.69629 15.2866,3.69629 6.832,0 12.5343,-1.51214 17.1069,-4.53614 4.5727,-3.024 7.7557,-7.00022 9.5493,-11.92822 0.9784,-2.688 1.3101,-4.9837 0.9951,-6.8877 -0.1622,-2.016 -1.1747,-3.69603 -3.0376,-5.04003 -1.8628,-1.344 -4.6881,-2.35193 -8.4755,-3.02393 l -10.4766,-1.68018 c -7.3916,-1.232 -13.1894,-3.30382 -17.3936,-6.21582 -4.0921,-2.912 -6.5697,-6.72031 -7.4336,-11.42431 -0.8638,-4.704 -0.1544,-10.19187 2.1285,-16.46387 2.5681,-7.056 6.5258,-13.16001 11.873,-18.31201 5.3472,-5.152 11.6659,-9.12774 18.957,-11.92774 7.4439,-2.912 15.5341,-4.36816 24.2701,-4.36816 z m 575.2622,0 c 8.848,0 16.0253,1.51213 21.5327,4.53613 5.5481,2.912 9.655,7.16758 12.3208,12.76758 l -20.3174,14.28028 c -1.6075,-3.58401 -4.0756,-6.49584 -7.4043,-8.73584 -3.3287,-2.24001 -8.1289,-3.36036 -14.4009,-3.36036 -6.272,0 -11.4806,1.23229 -15.6255,3.69629 -4.104,2.352 -6.9512,5.71208 -8.541,10.08008 -1.1006,3.024 -1.4372,5.4876 -1.0102,7.3916 0.427,1.904 1.6687,3.41613 3.7251,4.53613 2.0971,1.008 4.851,1.90399 8.2617,2.68799 l 10.186,2.01612 c 7.4628,1.344 13.2404,3.47178 17.3325,6.38379 4.0922,2.91199 6.5345,6.66435 7.3272,11.25635 0.8334,4.47999 0.068,9.96786 -2.2964,16.46386 -2.6905,7.392 -6.791,13.88779 -12.3013,19.48779 -5.3982,5.6 -11.9718,9.96801 -19.7212,13.10401 -7.7494,3.136 -16.2723,4.7041 -25.5683,4.7041 -9.968,0 -17.8835,-1.79198 -23.7471,-5.37598 -5.7515,-3.584 -10.0316,-8.28781 -12.8398,-14.11181 l 20.2109,-14.44825 c 2.3199,4.70401 5.4952,8.28796 9.5264,10.75196 4.1431,2.464 9.2386,3.69629 15.2866,3.69629 6.832,0 12.5343,-1.51214 17.1069,-4.53614 4.5727,-3.024 7.7562,-7.00022 9.5498,-11.92822 0.9784,-2.688 1.3097,-4.9837 0.9947,-6.8877 -0.1623,-2.016 -1.1743,-3.69603 -3.0371,-5.04003 -1.8629,-1.344 -4.6882,-2.35193 -8.4756,-3.02393 l -10.4766,-1.68018 c -7.3916,-1.232 -13.1894,-3.30382 -17.3935,-6.21582 -4.0922,-2.912 -6.5702,-6.72031 -7.4341,-11.42431 -0.8639,-4.704 -0.1544,-10.19187 2.1284,-16.46387 2.5682,-7.056 6.5259,-13.16001 11.873,-18.31201 5.3472,-5.152 11.6664,-9.12774 18.9575,-11.92774 7.4439,-2.912 15.5341,-4.36816 24.2701,-4.36816 z m 93.6714,0 c 8.848,0 16.0258,1.51213 21.5332,4.53613 5.5481,2.912 9.655,7.16758 12.3208,12.76758 l -20.3174,14.28028 c -1.6076,-3.58401 -4.0761,-6.49584 -7.4048,-8.73585 -3.3287,-2.24 -8.1289,-3.36035 -14.4009,-3.36035 -6.272,0 -11.4802,1.23229 -15.625,3.69629 -4.104,2.352 -6.9512,5.71208 -8.541,10.08008 -1.1007,3.024 -1.4377,5.4876 -1.0107,7.3916 0.427,1.904 1.6687,3.41613 3.725,4.53613 2.0972,1.008 4.8511,1.90399 8.2618,2.68799 l 10.1865,2.01612 c 7.4628,1.344 13.2399,3.47178 17.332,6.38379 4.0922,2.91199 6.5345,6.66435 7.3272,11.25635 0.8334,4.47999 0.068,9.96786 -2.2964,16.46386 -2.6905,7.392 -6.7906,13.88779 -12.3008,19.48779 -5.3982,5.6 -11.9723,9.96801 -19.7217,13.10401 -7.7494,3.136 -16.2718,4.7041 -25.5678,4.7041 -9.968,0 -17.8841,-1.79198 -23.7476,-5.37598 -5.7515,-3.584 -10.0311,-8.28781 -12.8394,-14.11181 l 20.2105,-14.44825 c 2.3199,4.70401 5.4957,8.28796 9.5268,10.75196 4.1432,2.464 9.2387,3.69629 15.2867,3.69629 6.832,0 12.5343,-1.51214 17.1069,-4.53614 4.5726,-3.024 7.7557,-7.00022 9.5493,-11.92822 0.9784,-2.688 1.3101,-4.9837 0.9951,-6.8877 -0.1622,-2.016 -1.1747,-3.69603 -3.0376,-5.04003 -1.8628,-1.344 -4.6881,-2.35193 -8.4755,-3.02393 l -10.4761,-1.68018 c -7.3916,-1.232 -13.1895,-3.30382 -17.3936,-6.21582 -4.0921,-2.912 -6.5702,-6.72031 -7.4341,-11.42431 -0.8638,-4.704 -0.1544,-10.19187 2.1285,-16.46387 2.5681,-7.056 6.5258,-13.16001 11.873,-18.31201 5.3472,-5.152 11.6659,-9.12774 18.957,-11.92774 7.4439,-2.912 15.5341,-4.36816 24.2701,-4.36816 z m -619.4234,2.01611 h 21.8399 l -26.232,72.07178 c -2.2013,6.048 -3.3281,11.14409 -3.3803,15.28809 0.1004,4.032 1.4433,7.11174 4.0288,9.23974 2.7382,2.016 6.9073,3.02442 12.5073,3.02442 5.6,0 10.4472,-1.00842 14.541,-3.02442 4.1345,-2.128 7.7194,-5.20774 10.7549,-9.23974 3.0763,-4.144 5.7152,-9.24009 7.9165,-15.28809 l 26.2319,-72.07178 h 21.6719 l -25.1924,69.21582 c -4.158,11.424 -9.1144,20.8881 -14.8696,28.3921 -5.6025,7.39199 -12.36,12.87986 -20.2725,16.46386 -7.7597,3.472 -17.1275,5.20801 -28.1035,5.20801 -10.976,0 -19.1362,-1.73601 -24.4804,-5.20801 -5.1916,-3.584 -7.8982,-9.07187 -8.1197,-16.46386 -0.1807,-7.504 1.8078,-16.9681 5.9659,-28.3921 z m 101.0015,0 h 52.7519 c 7.28,0 12.9458,1.51165 16.9971,4.53565 4.0514,3.024 6.4783,7.28006 7.2808,12.76806 0.8433,5.37601 -0.06,11.70389 -2.7095,18.98389 -2.6497,7.28 -6.3734,13.66435 -11.1709,19.15235 -4.7567,5.376 -10.2615,9.57609 -16.5142,12.60009 -6.2526,3.024 -13.0188,4.53565 -20.2988,4.53565 h -30.5762 l -16.2651,44.68799 h -22.1758 z m 97.2944,0 h 52.752 c 7.28,0 12.9457,1.51165 16.997,4.53565 4.0514,3.024 6.4783,7.28006 7.2808,12.76806 0.8433,5.37601 -0.06,11.70389 -2.7095,18.98389 -2.6497,7.28 -6.3734,13.66435 -11.1709,19.15235 -4.7567,5.376 -10.2615,9.57609 -16.5141,12.60009 -6.2527,3.024 -13.0189,4.53565 -20.2989,4.53565 h -30.5761 l -16.2652,44.68799 h -22.1757 z m 97.2944,0 h 52.92 c 7.168,0 12.7777,1.51165 16.8291,4.53565 4.0921,2.912 6.5392,7.1121 7.3418,12.6001 0.8433,5.376 -0.08,11.75985 -2.7705,19.15185 -2.8943,7.952 -7.27,14.89603 -13.1265,20.83203 -5.7038,5.824 -12.644,9.96813 -20.8208,12.43213 l 6.6582,47.71192 h -24.6958 l -5.3916,-45.1919 h -21 l -16.4487,45.1919 h -22.1758 z m 98.3238,0 h 77.2798 l -7.1543,19.65576 h -55.104 l -10.395,28.56006 h 48.7201 l -7.0932,19.4878 h -48.7197 l -10.8843,29.9043 h 55.104 l -7.1543,19.65576 h -77.2798 z m 275.8593,0 h 77.2803 l -7.1543,19.65577 h -55.104 l -10.395,28.56005 h 48.7202 l -7.0932,19.4878 H 821.998 l -10.8843,29.9043 h 55.1041 l -7.1543,19.65576 h -77.2798 z m 88.5166,0 h 42.6724 c 10.192,0 18.301,2.18376 24.3272,6.55176 6.0262,4.368 9.5215,10.92025 10.4858,19.65625 1.0051,8.624 -0.8567,19.43183 -5.5854,32.42383 -4.7287,12.992 -10.755,23.85579 -18.0787,32.5918 -7.2828,8.624 -15.527,15.12028 -24.7328,19.48828 -9.2059,4.368 -18.9047,6.55176 -29.0967,6.55176 h -42.6719 z m -642.1444,19.31983 -12.4132,34.104 h 28.5601 c 2.912,0 5.5595,-0.50421 7.9424,-1.51221 2.4236,-1.12 4.542,-2.63164 6.355,-4.53564 1.8537,-2.016 3.2904,-4.42412 4.3095,-7.22412 l 2.8125,-7.72803 c 1.0599,-2.912 1.3763,-5.32012 0.9493,-7.22412 -0.427,-1.904 -1.4647,-3.35967 -3.1138,-4.36768 -1.6491,-1.00799 -3.9298,-1.5122 -6.8418,-1.5122 z m 97.2944,0 -12.4131,34.104 h 28.56 c 2.9121,0 5.5596,-0.50421 7.9424,-1.51221 2.4237,-1.12 4.542,-2.63164 6.355,-4.53564 1.8537,-2.016 3.2905,-4.42412 4.3096,-7.22412 l 2.8125,-7.72803 c 1.0598,-2.912 1.3762,-5.32012 0.9492,-7.22412 -0.427,-1.904 -1.4647,-3.35967 -3.1138,-4.36768 -1.6491,-1.00799 -3.9298,-1.5122 -6.8418,-1.5122 z m 97.2944,0 -12.4131,34.104 h 28.5601 c 2.912,0 5.5595,-0.50421 7.9423,-1.51221 2.4237,-1.12 4.542,-2.63164 6.355,-4.53564 1.8538,-2.016 3.2905,-4.42412 4.3096,-7.22412 l 2.8125,-7.72803 c 1.0599,-2.912 1.3762,-5.32012 0.9492,-7.22412 -0.427,-1.904 -1.4646,-3.35967 -3.1137,-4.36768 -1.6492,-1.00799 -3.9298,-1.5122 -6.8418,-1.5122 z m 462.5776,0.33593 -28.3721,77.95216 h 20.4961 c 5.488,0 10.6349,-1.0639 15.4415,-3.1919 4.8473,-2.24 9.1862,-5.54411 13.0161,-9.91211 3.8706,-4.48 7.0079,-10.02384 9.4131,-16.63184 l 6.7265,-18.48046 c 2.4459,-6.72001 3.3436,-12.26384 2.6934,-16.63184 -0.6502,-4.368 -2.6039,-7.61614 -5.8614,-9.74414 -3.2166,-2.24 -7.5691,-3.35986 -13.0571,-3.35986 z" fill="#141414"/>
</svg>