<svg xmlns="http://www.w3.org/2000/svg" viewBox="0 0 4096 576">
  <title>SUPPRESSED</title>
  <desc>Trade Mark</desc>
  <path d="M 209.647,0 H 4096 L 3886.353,576 H 0 Z" fill="#141414"/>
  <path d="m 234.72017,530.59202 q -59.808,0 -94.98919,-21.504 -34.50918,-21.504 -51.358604,-56.448 l 80.842564,-57.792 q 13.91931,28.224 38.10637,43.008 24.85907,14.784 61.14707,14.784 40.992,0 68.42787,-18.144 27.43588,-18.144 38.19775,-47.712 5.87011,-16.128 3.98011,-27.552 -0.97342,-12.096 -12.15036,-20.16 -11.17695,-8.064 -33.90142,-12.096 l -41.90612,-6.72 q -44.34953,-7.392 -69.57424,-24.864 -24.55271,-17.472 -29.73602,-45.696 -5.1833,-28.224 8.51362,-65.856 15.40905,-42.336 47.4921,-73.248 32.08305,-30.912005 75.82975,-47.712005 44.66328,-17.472 97.07928,-17.472 53.088,0 86.13213,18.144 33.28871,17.472 49.28331,51.072005 l -81.26998,57.12 q -9.64519,-21.504 -29.61743,-34.944 -19.97224,-13.44 -57.60424,-13.44 -37.632,0 -62.50093,14.784 -24.62435,14.112 -34.16328,40.32 -6.60388,18.144 -4.04187,29.568 2.562,11.424 14.90012,18.144 12.58271,6.048 33.04659,10.752 l 40.74495,8.064 q 44.77694,8.064 69.32965,25.536 24.55272,17.472 29.30861,45.024 5.00048,26.88 -9.18563,65.856 -16.1428,44.352 -49.2042,77.952 -32.3894,33.6 -78.88587,52.416 -46.49646,18.816 -102.27246,18.816 z M 618.76207,53.472015 h 87.36 L 601.19382,341.76002 q -13.20776,36.288 -13.52151,61.152 0.60283,24.192 16.11566,36.96 16.42941,12.096 50.02941,12.096 33.6,0 58.16259,-12.096 24.80717,-12.768 43.02034,-36.96 18.45775,-24.864 31.66551,-61.152 L 891.59407,53.472015 h 86.688 L 877.51181,330.33602 q -24.94797,68.544 -59.47937,113.568 -33.61481,44.352 -81.08962,65.856 -46.55823,20.832 -112.41423,20.832 -65.856,0 -97.92177,-20.832 -31.14919,-21.504 -32.47838,-65.856 -1.0846,-45.024 23.86337,-113.568 z M 940.74885,522.52802 h -88.704 L 1022.7673,53.472015 h 211.008 q 43.68,0 67.9881,18.144 24.3081,18.144 29.1233,51.072005 5.0598,32.256 -10.8384,75.936 -15.8983,43.68 -44.6831,76.608 -28.5402,32.256 -66.0561,50.4 -37.5158,18.144 -81.1958,18.144 h -122.304 z m 142.59485,-391.776 -49.6514,136.416 h 114.24 q 17.472,0 31.7693,-6.048 14.5419,-6.72 25.4199,-18.144 11.1225,-12.096 17.2372,-28.896 l 11.2511,-30.912 q 6.3593,-17.472 3.7973,-28.896 -2.562,-11.424 -12.4567,-17.472 -9.8947,-6.048 -27.3667,-6.048 z m 246.583,391.776 h -88.704 L 1411.9451,53.472015 h 211.008 q 43.68,0 67.9881,18.144 24.3081,18.144 29.1233,51.072005 5.0598,32.256 -10.8384,75.936 -15.8983,43.68 -44.6831,76.608 -28.5402,32.256 -66.0561,50.4 -37.5158,18.144 -81.1958,18.144 h -122.304 z m 142.5948,-391.776 -49.6514,136.416 h 114.24 q 17.472,0 31.7693,-6.048 14.5419,-6.72 25.4199,-18.144 11.1225,-12.096 17.2372,-28.896 l 11.2511,-30.912 q 6.3593,-17.472 3.7973,-28.896 -2.562,-11.424 -12.4567,-17.472 -9.8947,-6.048 -27.3667,-6.048 z m 312.3769,211.008 -65.7941,180.768 h -88.704 L 1801.1227,53.472015 h 211.68 q 43.008,0 67.3161,18.144 24.5527,17.472 29.3679,50.400005 5.0598,32.256 -11.083,76.608 -17.3658,47.712 -52.5049,83.328 -34.2226,34.944 -83.2836,49.728 l 26.6331,190.848 h -98.784 l -21.5659,-180.768 z m 27.1493,-74.592 h 114.24 q 17.472,0 31.7693,-6.048 14.5419,-6.72 25.4199,-18.144 11.1225,-12.096 17.2372,-28.896 l 11.2511,-30.912 q 6.3593,-17.472 3.7973,-28.896 -2.562,-11.424 -12.4567,-17.472 -9.8947,-6.048 -27.3667,-6.048 h -114.24 z m 520.7669,255.36 h -309.12 L 2194.417,53.472015 h 309.12 l -28.6168,78.624005 h -220.416 l -41.58,114.24 h 194.88 l -28.3722,77.952 h -194.88 l -43.5367,119.616 h 220.416 z m 202.9535,8.064 q -59.808,0 -94.9892,-21.504 -34.5092,-21.504 -51.3586,-56.448 l 80.8426,-57.792 q 13.9193,28.224 38.1063,43.008 24.8591,14.784 61.1471,14.784 40.992,0 68.4279,-18.144 27.4359,-18.144 38.1977,-47.712 5.8701,-16.128 3.9801,-27.552 -0.9734,-12.096 -12.1503,-20.16 -11.177,-8.064 -33.9014,-12.096 l -41.9062,-6.72 q -44.3495,-7.392 -69.5742,-24.864 -24.5527,-17.472 -29.736,-45.696 -5.1833,-28.224 8.5136,-65.856 15.409,-42.336 47.4921,-73.248 32.083,-30.912005 75.8297,-47.712005 44.6633,-17.472 97.0793,-17.472 53.088,0 86.1322,18.144 33.2887,17.472 49.2833,51.072005 l -81.27,57.12 q -9.6452,-21.504 -29.6174,-34.944 -19.9723,-13.44 -57.6043,-13.44 -37.632,0 -62.5009,14.784 -24.6244,14.112 -34.1633,40.32 -6.6039,18.144 -4.0419,29.568 2.562,11.424 14.9002,18.144 12.5827,6.048 33.0466,10.752 l 40.7449,8.064 q 44.7769,8.064 69.3297,25.536 24.5527,17.472 29.3086,45.024 5.0004,26.88 -9.1857,65.856 -16.1428,44.352 -49.2042,77.952 -32.3894,33.6 -78.8858,52.416 -46.4965,18.816 -102.2725,18.816 z m 374.6865,0 q -59.808,0 -94.9892,-21.504 -34.5092,-21.504 -51.3586,-56.448 l 80.8426,-57.792 q 13.9193,28.224 38.1063,43.008 24.8591,14.784 61.1471,14.784 40.992,0 68.4279,-18.144 27.4359,-18.144 38.1977,-47.712 5.8701,-16.128 3.9801,-27.552 -0.9734,-12.096 -12.1503,-20.16 -11.177,-8.064 -33.9014,-12.096 l -41.9062,-6.72 q -44.3495,-7.392 -69.5742,-24.864 -24.5527,-17.472 -29.736,-45.696 -5.1833,-28.224 8.5136,-65.856 15.409,-42.336 47.4921,-73.248 32.083,-30.912005 75.8297,-47.712005 44.6633,-17.472 97.0793,-17.472 53.088,0 86.1322,18.144 33.2887,17.472 49.2833,51.072005 l -81.27,57.12 q -9.6452,-21.504 -29.6174,-34.944 -19.9723,-13.44 -57.6043,-13.44 -37.632,0 -62.5009,14.784 -24.6244,14.112 -34.1633,40.32 -6.6039,18.144 -4.0419,29.568 2.562,11.424 14.9002,18.144 12.5827,6.048 33.0466,10.752 l 40.7449,8.064 q 44.7769,8.064 69.3297,25.536 24.5527,17.472 29.3086,45.024 5.0004,26.88 -9.1857,65.856 -16.1428,44.352 -49.2042,77.952 -32.3894,33.6 -78.8858,52.416 -46.4965,18.816 -102.2725,18.816 z m 525.7994,-8.064 h -309.12 L 3297.8564,53.472015 h 309.12 l -28.6168,78.624005 h -220.416 l -41.58,114.24 h 194.88 l -28.3722,77.952 h -194.88 l -43.5367,119.616 h 220.416 z m 44.9464,0 170.7224,-469.056005 h 170.688 q 61.152,0 97.309,26.208 36.1571,26.208005 41.9432,78.624005 6.0308,51.744 -22.3414,129.696 -28.3722,77.952 -72.3141,130.368 -43.6973,51.744 -98.9322,77.952 -55.2349,26.208 -116.3869,26.208 z m 117.3207,-78.624 h 81.984 q 32.928,0 61.7672,-12.768 29.0838,-13.44 52.0627,-39.648 23.2235,-26.88 37.6542,-66.528 l 26.9047,-73.92 q 14.6753,-40.32 10.7742,-66.528 -3.9011,-26.208 -23.4459,-38.976 -19.3002,-13.44 -52.2282,-13.44 h -81.984 z" fill="#fafafa"/>
</svg>